<svg id="Layer_1" data-name="Layer 1" xmlns="http://www.w3.org/2000/svg" viewBox="314 313.15 254.78 197.4"><defs><style>.cls-1{fill:#224099;}</style></defs><path class="cls-1" d="M314,509.76V477.41l4.59-.32c1.37-.09,2.87-.19,4.5-.27s3.24-.17,4.84-.23,3-.09,4.28-.09a19.11,19.11,0,0,1,6.66,1,12.25,12.25,0,0,1,4.42,2.71,10.61,10.61,0,0,1,2.46,3.7,11.2,11.2,0,0,1,.78,4.05,10.24,10.24,0,0,1-1.8,6.09,14.85,14.85,0,0,1-4.6,4.2l8.79,11.49h-16l-5.69-9.38v9.38Zm13.14-15.27a16,16,0,0,0,5.64-3.17,5.16,5.16,0,0,0,1.71-3.68,3.17,3.17,0,0,0-.61-2.25,2.07,2.07,0,0,0-1.52-.61,4.08,4.08,0,0,0-1.21.2c-.42.13-.86.28-1.32.47l-2.69,1.12Z"/><path class="cls-1" d="M351,509.76l16.08-30.71a4,4,0,0,1,1.82-1.73,5.69,5.69,0,0,1,2.57-.62,5.28,5.28,0,0,1,2.34.55,3.89,3.89,0,0,1,1.77,1.68l17.26,30.82H376.39l-1.28-3.2h-8.75l-1.09,3.2Zm16.38-9.63h6.54l-3.1-8.74Z"/><path class="cls-1" d="M415.21,477.41h12.62v32.34H415.21V497.8l-6.72.59v11.36h-12.6V477.41h12.59v11.68l6.73-.54Z"/><path class="cls-1" d="M432.81,477.41h3.28L453.75,490V477.41h11.4v32.34H460.8l-16.63-11.12v11.12H432.81Z"/><path class="cls-1" d="M482.73,509.75H470.14V477.4h12.6Z"/><path class="cls-1" d="M487.67,477.4h4.64L508,492.09,524,477.4h4.47v32.35h-13.3V499.26l-8.26,9.07-8-8.83v10.25h-11.2Z"/><path class="cls-1" d="M550.44,510.54a18.79,18.79,0,0,1-6.63-1.21,18.54,18.54,0,0,1-5.78-3.45,16.71,16.71,0,0,1-4.06-5.4,16.15,16.15,0,0,1-1.5-7,16.62,16.62,0,0,1,1.41-6.92,16.07,16.07,0,0,1,3.9-5.37,17.59,17.59,0,0,1,5.74-3.45,19.6,19.6,0,0,1,6.92-1.21,21.79,21.79,0,0,1,7.18,1.16,17.36,17.36,0,0,1,5.83,3.39,15.43,15.43,0,0,1,3.91,5.38,17.52,17.52,0,0,1,1.41,7.18,16.19,16.19,0,0,1-1.48,7,16,16,0,0,1-4,5.34,18.69,18.69,0,0,1-5.86,3.39A20.37,20.37,0,0,1,550.44,510.54ZM549,500a3.59,3.59,0,0,0,2.29-1,12.76,12.76,0,0,0,2.29-2.66,17.06,17.06,0,0,0,1.75-3.43,9.5,9.5,0,0,0,.68-3.32,3.66,3.66,0,0,0-.75-2.35,3.07,3.07,0,0,0-2.53-.93,3.76,3.76,0,0,0-2.34,1,11.88,11.88,0,0,0-2.33,2.63,17.18,17.18,0,0,0-1.77,3.4,9.3,9.3,0,0,0-.69,3.31,3.67,3.67,0,0,0,.78,2.41A3.19,3.19,0,0,0,549,500Z"/><path class="cls-1" d="M404.1,352.09V314.26c2-.15,3.76-.27,5.37-.38s3.35-.22,5.25-.32,3.8-.19,5.67-.26,3.54-.11,5-.11a22.51,22.51,0,0,1,7.79,1.19,14.24,14.24,0,0,1,5.17,3.17,12.44,12.44,0,0,1,2.88,4.33,13.07,13.07,0,0,1,.91,4.74,11.94,11.94,0,0,1-2.11,7.12,17.53,17.53,0,0,1-5.38,4.92L445,352.09H426.23l-6.66-11v11Zm15.38-17.86a18.62,18.62,0,0,0,6.59-3.71,6,6,0,0,0,2-4.3,3.73,3.73,0,0,0-.71-2.63,2.44,2.44,0,0,0-1.78-.71,4.53,4.53,0,0,0-1.42.23,14.4,14.4,0,0,0-1.54.55L419.48,325Z"/><path class="cls-1" d="M467.44,352.09H482.2v37.83H467.44v-14l-7.87.69v13.29H444.83V352.09h14.74v13.67l7.87-.64Z"/><path class="cls-1" d="M397.12,389.86h5.42L420.83,407l18.79-17.18h5.24V427.7H429.29V415.43L419.63,426l-9.41-10.33v12h-13.1Z"/><path class="cls-1" d="M464.18,452.07a21.89,21.89,0,0,1-7.76-1.41,21.59,21.59,0,0,1-6.76-4,19.42,19.42,0,0,1-4.75-6.31,18.91,18.91,0,0,1-1.75-8.23,19.5,19.5,0,0,1,1.65-8.11,18.49,18.49,0,0,1,4.56-6.27,20.5,20.5,0,0,1,6.71-4,23.09,23.09,0,0,1,8.09-1.41,25.25,25.25,0,0,1,8.4,1.36,20.19,20.19,0,0,1,6.83,4,18.1,18.1,0,0,1,4.57,6.3,20.44,20.44,0,0,1,1.64,8.4,19,19,0,0,1-1.72,8.2,18.68,18.68,0,0,1-4.74,6.25,21.9,21.9,0,0,1-6.86,4A23.87,23.87,0,0,1,464.18,452.07Zm-1.66-12.32a4.19,4.19,0,0,0,2.67-1.22,14.93,14.93,0,0,0,2.68-3.11,20,20,0,0,0,2.05-4,11,11,0,0,0,.79-3.88,4.27,4.27,0,0,0-.87-2.75,3.61,3.61,0,0,0-3-1.09,4.41,4.41,0,0,0-2.73,1.2,14.34,14.34,0,0,0-2.73,3.08,20.07,20.07,0,0,0-2.07,4,10.76,10.76,0,0,0-.8,3.87,4.28,4.28,0,0,0,.91,2.82A3.77,3.77,0,0,0,462.52,439.75Z"/></svg>